<?xml version="1.0" encoding="utf-8"?>
<!-- Generator: Adobe Illustrator 24.0.2, SVG Export Plug-In . SVG Version: 6.00 Build 0)  -->
<svg version="1.1" id="Layer_1" xmlns="http://www.w3.org/2000/svg" xmlns:xlink="http://www.w3.org/1999/xlink" x="0px" y="0px"
	 viewBox="0 0 200 200" style="enable-background:new 0 0 200 200;" xml:space="preserve">
<style type="text/css">
	.st0{fill:url(#SVGID_1_);}
	.st1{fill:url(#SVGID_2_);}
	.st2{fill:url(#SVGID_3_);}
	.st3{fill:url(#SVGID_4_);}
	.st4{fill:url(#SVGID_5_);}
	.st5{fill:url(#SVGID_6_);}
	.st6{fill:url(#SVGID_7_);}
	.st7{fill:url(#SVGID_8_);}
	.st8{fill:#FFFFFF;}
	.st9{fill:#FFFFFF;stroke:#FFFFFF;stroke-width:0.15;stroke-miterlimit:10;}
</style>
<g>
	<g>
		<g>
			<linearGradient id="SVGID_1_" gradientUnits="userSpaceOnUse" x1="102.4236" y1="37.1912" x2="102.7284" y2="119.7885">
				<stop  offset="0" style="stop-color:#314D9D"/>
				<stop  offset="1" style="stop-color:#7B4594"/>
			</linearGradient>
			<path class="st0" d="M158.3,102.1c0,3-0.2,6.1-0.7,9h-8.8c0.6-3,0.9-6,0.9-9c0-9.5-2.9-18.7-8.1-26.4c-1.6-2.4-3.5-4.6-5.5-6.7
				c0,0,0,0,0,0l-7.5,4.4c0,0,0,0,0,0c2.2,2,4.1,4.2,5.8,6.6c0.7,1,1.4,2,2,3.1c3.3,5.8,5.1,12.4,5.1,19.1c0,0.5,0,1,0,1.5
				c-0.1,2.6-0.4,5.1-1,7.6c-0.5,2.3-1.3,4.5-2.2,6.6h-9.7c1.3-2.1,2.3-4.3,3-6.6c0.8-2.5,1.3-5.2,1.4-7.9c0-0.4,0-0.8,0-1.2
				c0-6.6-2.1-12.8-5.9-17.9c-1.8-2.4-3.9-4.5-6.3-6.3l-6.1,3.5l-11.7,6.8L84.8,77.9c0,0,0,0,0,0c-2.4,1.8-4.5,3.9-6.3,6.3
				c-3.8,5.1-5.9,11.3-5.9,17.9c0,0.2,0,0.4,0,0.6l0,0c0.1,2.9,0.5,5.7,1.4,8.4c0.7,2.3,1.7,4.5,3,6.6h-9.7
				c-0.9-2.1-1.7-4.3-2.2-6.6c-0.6-2.7-1-5.4-1.1-8.2c0-0.3,0-0.6,0-0.8c0-6.7,1.7-13.3,5.1-19.1c0.6-1.1,1.3-2.1,2-3.1
				c1.7-2.4,3.6-4.6,5.8-6.6c0,0,0,0,0,0L70,69.4l-0.6-0.3L69.2,69c-2.1,2.1-3.9,4.3-5.5,6.7c-5.2,7.7-8.1,16.9-8.1,26.4
				c0,3,0.3,6.1,0.9,9h-8.8c-0.5-3-0.7-6-0.7-9c0-8.1,1.7-15.9,5.1-23.2c1.2-2.6,2.6-5.1,4.1-7.5c1.6-2.4,3.4-4.7,5.3-6.8l-5.5-3.1
				L53,59.6v-9.9l9.1,5.2l27.6,15.9l13,7.5l49.6-28.6v9.9l-3.2,1.8l-5.3,3.1c2,2.2,3.8,4.4,5.4,6.9C155,80.4,158.3,91.1,158.3,102.1
				z"/>
			<linearGradient id="SVGID_2_" gradientUnits="userSpaceOnUse" x1="102.4093" y1="-11.0923" x2="102.714" y2="71.5031">
				<stop  offset="0.4469" style="stop-color:#F3901A"/>
				<stop  offset="0.4737" style="stop-color:#F4991A"/>
				<stop  offset="0.52" style="stop-color:#F7AF17"/>
				<stop  offset="0.5798" style="stop-color:#FCCF10"/>
				<stop  offset="0.615" style="stop-color:#FFE204"/>
				<stop  offset="1" style="stop-color:#E82D89"/>
			</linearGradient>
			<polygon class="st1" points="133.8,50.6 133.8,40.7 102.2,58.6 71.5,40.1 71.4,40.2 71.4,50.1 102.1,68.6 			"/>
		</g>
		<linearGradient id="SVGID_3_" gradientUnits="userSpaceOnUse" x1="64.2999" y1="62.5453" x2="54.1352" y2="79.0166">
			<stop  offset="0" style="stop-color:#241A39"/>
			<stop  offset="0.1057" style="stop-color:#433654"/>
			<stop  offset="0.2514" style="stop-color:#796D85"/>
			<stop  offset="0.3834" style="stop-color:#ADA5B5"/>
			<stop  offset="0.497" style="stop-color:#D8D3DC"/>
			<stop  offset="0.5878" style="stop-color:#F5F3F6"/>
			<stop  offset="0.6444" style="stop-color:#FFFFFF"/>
		</linearGradient>
		<path class="st2" d="M69.2,69c-2.1,2.1-3.9,4.3-5.5,6.7l-0.4-0.2l-7.1-4.1c1.6-2.4,3.4-4.7,5.3-6.8l-5.5-3.1l0,0L69.2,69z"/>
		<linearGradient id="SVGID_4_" gradientUnits="userSpaceOnUse" x1="81.4379" y1="73.1215" x2="71.2732" y2="89.5928">
			<stop  offset="0" style="stop-color:#241A39"/>
			<stop  offset="0.1057" style="stop-color:#433654"/>
			<stop  offset="0.2514" style="stop-color:#796D85"/>
			<stop  offset="0.3834" style="stop-color:#ADA5B5"/>
			<stop  offset="0.497" style="stop-color:#D8D3DC"/>
			<stop  offset="0.5878" style="stop-color:#F5F3F6"/>
			<stop  offset="0.6444" style="stop-color:#FFFFFF"/>
		</linearGradient>
		<path class="st3" d="M84.8,77.9c-2.4,1.8-4.5,3.9-6.3,6.3L71,79.9c1.7-2.4,3.6-4.6,5.8-6.6L84.8,77.9z"/>
		<linearGradient id="SVGID_5_" gradientUnits="userSpaceOnUse" x1="114.39" y1="79.6506" x2="120.5111" y2="79.6506">
			<stop  offset="0" style="stop-color:#241A39"/>
			<stop  offset="0.1057" style="stop-color:#433654"/>
			<stop  offset="0.2514" style="stop-color:#796D85"/>
			<stop  offset="0.3834" style="stop-color:#ADA5B5"/>
			<stop  offset="0.497" style="stop-color:#D8D3DC"/>
			<stop  offset="0.5878" style="stop-color:#F5F3F6"/>
			<stop  offset="0.6444" style="stop-color:#FFFFFF"/>
		</linearGradient>
		<polygon class="st4" points="114.4,81.4 120.5,77.9 114.4,81.4 		"/>
		<linearGradient id="SVGID_6_" gradientUnits="userSpaceOnUse" x1="122.8566" y1="71.7705" x2="133.7632" y2="88.7425">
			<stop  offset="0" style="stop-color:#241A39"/>
			<stop  offset="0.1057" style="stop-color:#433654"/>
			<stop  offset="0.2514" style="stop-color:#796D85"/>
			<stop  offset="0.3834" style="stop-color:#ADA5B5"/>
			<stop  offset="0.497" style="stop-color:#D8D3DC"/>
			<stop  offset="0.5878" style="stop-color:#F5F3F6"/>
			<stop  offset="0.6444" style="stop-color:#FFFFFF"/>
		</linearGradient>
		<path class="st5" d="M134.3,79.8l-7.5,4.3c-1.8-2.4-3.9-4.5-6.3-6.3l1.6-0.9l6.4-3.7C130.7,75.3,132.6,77.5,134.3,79.8z"/>
		<linearGradient id="SVGID_7_" gradientUnits="userSpaceOnUse" x1="143.7088" y1="62.9512" x2="149.0309" y2="62.9512">
			<stop  offset="0" style="stop-color:#241A39"/>
			<stop  offset="0.1057" style="stop-color:#433654"/>
			<stop  offset="0.2514" style="stop-color:#796D85"/>
			<stop  offset="0.3834" style="stop-color:#ADA5B5"/>
			<stop  offset="0.497" style="stop-color:#D8D3DC"/>
			<stop  offset="0.5878" style="stop-color:#F5F3F6"/>
			<stop  offset="0.6444" style="stop-color:#FFFFFF"/>
		</linearGradient>
		<polygon class="st6" points="149,61.4 143.7,64.5 149,61.4 		"/>
		<linearGradient id="SVGID_8_" gradientUnits="userSpaceOnUse" x1="137.5343" y1="62.3382" x2="148.441" y2="79.3103">
			<stop  offset="0" style="stop-color:#241A39"/>
			<stop  offset="0.1057" style="stop-color:#433654"/>
			<stop  offset="0.2514" style="stop-color:#796D85"/>
			<stop  offset="0.3834" style="stop-color:#ADA5B5"/>
			<stop  offset="0.497" style="stop-color:#D8D3DC"/>
			<stop  offset="0.5878" style="stop-color:#F5F3F6"/>
			<stop  offset="0.6444" style="stop-color:#FFFFFF"/>
		</linearGradient>
		<path class="st7" d="M149.1,71.3l-7.5,4.3c-1.6-2.4-3.5-4.6-5.5-6.7l7.7-4.4C145.7,66.6,147.5,68.9,149.1,71.3z"/>
	</g>
	<g>
		<g>
			<path class="st8" d="M50.5,153.4l3,11.2H52l-1.8-6.8L47,165l-3.2-7.3l-1.9,6.9h-1.5l3-11.2l3.5,8L50.5,153.4z"/>
			<path class="st8" d="M54.6,155.4c0-0.3,0.1-0.6,0.3-0.8c0.2-0.2,0.5-0.3,0.8-0.3c0.3,0,0.6,0.1,0.8,0.3c0.2,0.2,0.3,0.5,0.3,0.8
				c0,0.3-0.1,0.6-0.3,0.8c-0.2,0.2-0.5,0.3-0.8,0.3c-0.3,0-0.6-0.1-0.8-0.3C54.8,156,54.6,155.7,54.6,155.4z M55.1,157.7h1.5v7
				h-1.5V157.7z"/>
			<path class="st8" d="M60.5,157.7v1.4c0.3-0.6,0.7-1,1-1.2s0.7-0.4,1.3-0.4c0.1,0,0.4,0,0.6,0.1l-0.5,1.5
				c-0.3-0.1-0.5-0.1-0.6-0.1c-0.5,0-0.9,0.2-1.3,0.5c-0.3,0.3-0.5,0.8-0.5,1.3v3.9H59v-7H60.5z"/>
			<path class="st8" d="M64.6,164.6v-7h1.5v1.1c0.4-0.4,0.7-0.8,1-1c0.3-0.2,0.7-0.3,1.1-0.3c0.5,0,1,0.1,1.3,0.3s0.6,0.6,0.8,1.1
				c0.4-0.5,0.7-0.9,1.1-1.1c0.4-0.2,0.8-0.3,1.2-0.3c0.6,0,1.1,0.2,1.5,0.6c0.4,0.4,0.6,0.9,0.6,1.5v5.1h-1.5v-4.7
				c0-0.8-0.4-1.2-1.2-1.2c-0.4,0-0.8,0.2-1.1,0.6c-0.3,0.4-0.5,0.9-0.5,1.5v3.8h-1.5v-4.5c0-0.9-0.4-1.4-1.2-1.4
				c-0.5,0-0.8,0.2-1.2,0.6s-0.5,0.8-0.5,1.4v3.9H64.6z"/>
			<path class="st8" d="M82.7,157.7h1.5v7h-1.5v-1.4c-0.7,1.1-1.6,1.6-2.7,1.6c-0.9,0-1.8-0.4-2.4-1.1s-1-1.6-1-2.6
				c0-1,0.3-1.8,1-2.5c0.7-0.7,1.5-1.1,2.4-1.1c0.6,0,1.1,0.1,1.6,0.4c0.5,0.3,0.9,0.7,1.2,1.2V157.7z M82.9,161.2
				c0-0.6-0.2-1.2-0.7-1.6c-0.5-0.5-1-0.7-1.7-0.7c-0.6,0-1.2,0.2-1.7,0.7s-0.7,1-0.7,1.6c0,0.7,0.2,1.2,0.7,1.7
				c0.5,0.5,1,0.7,1.7,0.7c0.7,0,1.2-0.2,1.7-0.7C82.7,162.3,82.9,161.8,82.9,161.2z"/>
			<path class="st8" d="M85.9,157.7h6.8l-4.3,5.7h4.3v1.3h-6.8l4.4-5.7h-4.3V157.7z"/>
			<path class="st8" d="M103.5,153.5l5.2,11.1h-1.6l-1.3-2.7h-4.7l-1.3,2.7h-1.6L103.5,153.5z M103.5,156.8l-1.8,3.8h3.6
				L103.5,156.8z"/>
			<path class="st8" d="M115.3,162.5v1.7c-0.8,0.4-1.5,0.6-2.2,0.6c-1,0-1.9-0.4-2.6-1.1c-0.7-0.7-1.1-1.6-1.1-2.5
				c0-1.1,0.4-2,1.1-2.7c0.7-0.7,1.7-1.1,2.8-1.1c0.7,0,1.4,0.2,2.1,0.5v1.6c-0.8-0.5-1.5-0.7-2.2-0.7c-0.6,0-1.2,0.2-1.6,0.6
				s-0.7,0.9-0.7,1.5c0,0.6,0.2,1.2,0.7,1.6s1,0.7,1.6,0.7C113.8,163.3,114.5,163.1,115.3,162.5z"/>
			<path class="st8" d="M122.9,157.7h1.5v7h-1.5v-1.4c-0.7,1.1-1.7,1.6-2.7,1.6c-0.9,0-1.8-0.4-2.4-1.1c-0.7-0.7-1-1.6-1-2.6
				c0-1,0.3-1.8,1-2.5c0.7-0.7,1.5-1.1,2.4-1.1c0.6,0,1.1,0.1,1.6,0.4s0.9,0.7,1.2,1.2V157.7z M123.1,161.2c0-0.6-0.2-1.2-0.7-1.6
				s-1-0.7-1.7-0.7c-0.6,0-1.2,0.2-1.7,0.7c-0.5,0.4-0.7,1-0.7,1.6c0,0.7,0.2,1.2,0.7,1.7c0.5,0.5,1,0.7,1.7,0.7
				c0.7,0,1.2-0.2,1.7-0.7S123.1,161.8,123.1,161.2z"/>
			<path class="st8" d="M132.7,153.7h1.5v10.9h-1.5v-1.4c-0.7,1.1-1.6,1.6-2.8,1.6c-0.9,0-1.7-0.4-2.4-1.1s-1-1.6-1-2.6
				c0-1,0.3-1.8,1-2.6c0.7-0.7,1.5-1.1,2.4-1.1c0.6,0,1.1,0.2,1.6,0.5c0.5,0.3,0.9,0.7,1.2,1.2V153.7z M132.8,161.1
				c0-0.6-0.2-1.2-0.7-1.6c-0.5-0.5-1-0.7-1.7-0.7c-0.7,0-1.2,0.2-1.7,0.7s-0.7,1-0.7,1.6c0,0.6,0.2,1.2,0.7,1.6
				c0.5,0.5,1,0.7,1.7,0.7c0.7,0,1.2-0.2,1.7-0.7C132.6,162.3,132.8,161.8,132.8,161.1z"/>
			<path class="st8" d="M143.6,161.4h-6.1c0.1,0.7,0.4,1.2,0.9,1.6c0.5,0.3,1,0.5,1.5,0.5c0.9,0,1.6-0.3,2.2-1l1.1,0.8
				c-0.8,1-1.9,1.6-3.3,1.6c-1.1,0-2-0.4-2.7-1.1c-0.7-0.7-1.1-1.6-1.1-2.6c0-1,0.4-1.8,1.1-2.6c0.7-0.7,1.6-1.1,2.7-1.1
				c1,0,1.9,0.4,2.7,1.1C143.3,159.3,143.6,160.3,143.6,161.4z M137.7,160.3h4.4c-0.5-1-1.2-1.4-2.2-1.4
				C138.9,158.8,138.1,159.3,137.7,160.3z"/>
			<path class="st8" d="M145.2,164.6v-7h1.5v1.1c0.4-0.4,0.7-0.8,1-1c0.3-0.2,0.7-0.3,1.1-0.3c0.5,0,1,0.1,1.3,0.3
				c0.3,0.2,0.6,0.6,0.8,1.1c0.4-0.5,0.7-0.9,1.1-1.1s0.8-0.3,1.2-0.3c0.6,0,1.1,0.2,1.5,0.6c0.4,0.4,0.6,0.9,0.6,1.5v5.1h-1.5v-4.7
				c0-0.8-0.4-1.2-1.2-1.2c-0.4,0-0.8,0.2-1.1,0.6c-0.3,0.4-0.5,0.9-0.5,1.5v3.8h-1.5v-4.5c0-0.9-0.4-1.4-1.2-1.4
				c-0.5,0-0.8,0.2-1.2,0.6s-0.5,0.8-0.5,1.4v3.9H145.2z"/>
			<path class="st8" d="M156.8,157.7h1.7l2.6,3.8l1.8-3.8h1.6l-4.8,10.2h-1.6l2.4-5L156.8,157.7z"/>
		</g>
		<g>
			<path class="st9" d="M59.8,137.8c0-1.4-0.2-2.4-0.7-3.1c-0.4-0.6-1.2-0.9-2.2-0.9c-0.8,0-1.4,0.3-1.7,1c-0.3,0.6-0.4,1.6-0.4,2.9
				v5.8h-8.4c-1.5,0-2.8-0.5-3.7-1.5c-0.9-1-1.3-2.2-1.3-3.7c0-1.7,0.6-3,1.9-4c0.1-0.1,0.3-0.2,0.5-0.3c0.1-0.1,0.1-0.1,0.2-0.1
				c0.4-0.2,0.9-0.3,1.4-0.3c0.3,0,0.6,0,0.9,0.1c0.6,0.2,1,0.5,1.2,0.9c0.1,0.2,0.2,0.4,0.2,0.5c0,0.1,0,0.2-0.1,0.3
				c-0.1,0.2-0.2,0.3-0.4,0.3c-0.1,0-0.1,0-0.2,0c-0.3-0.1-0.4-0.2-0.4-0.5c0-0.1,0.1-0.2,0.2-0.3c0.1-0.1,0.2-0.2,0.4-0.2l0.1,0
				l0,0c0,0-0.1-0.1-0.1-0.1c-0.1-0.1-0.2-0.2-0.3-0.3c-0.4-0.3-0.9-0.4-1.4-0.4c-0.7,0-1.2,0.2-1.7,0.5c-1.3,1-2,2.3-2,4
				c0,1.3,0.4,2.4,1.1,3.4c0.9,1.1,2.1,1.7,3.7,1.6h7.2v-6c0-1.2,0.3-2.1,0.9-2.8c0.6-0.7,1.4-1,2.5-1c1,0,1.7,0.3,2.2,0.8
				c0.6,0.7,0.9,1.8,0.9,3.3v5.6h1.5v0.2h-1.8V137.8z M50.1,144.4c0.1,0.1,0.2,0.3,0.2,0.5c0,0.2-0.1,0.3-0.2,0.5
				c-0.1,0.1-0.3,0.2-0.5,0.2c-0.2,0-0.4-0.1-0.5-0.2c-0.1-0.1-0.2-0.3-0.2-0.5c0-0.2,0.1-0.4,0.2-0.5c0.1-0.1,0.3-0.2,0.5-0.2
				C49.8,144.2,50,144.3,50.1,144.4z M52,144.4c0.1,0.1,0.2,0.3,0.2,0.5c0,0.2-0.1,0.4-0.2,0.5c-0.1,0.1-0.3,0.2-0.5,0.2
				c-0.2,0-0.3-0.1-0.5-0.2c-0.1-0.1-0.2-0.3-0.2-0.5c0-0.2,0.1-0.4,0.2-0.5s0.3-0.2,0.5-0.2C51.7,144.2,51.9,144.3,52,144.4z"/>
			<path class="st9" d="M65.1,142.1c-0.1,0.2-0.2,0.3-0.4,0.5c-0.6,0.7-1.6,1-2.9,1h-0.3v-0.2h0.3c1,0,1.7-0.4,2.1-1.1
				c0.4-0.6,0.6-1.5,0.6-2.8c0-0.1,0-0.3,0-0.4c0-1.6,0.4-2.9,1.2-3.9c0.9-1.1,2.1-1.6,3.6-1.6c1.6,0,2.8,0.5,3.7,1.6
				c0.8,1,1.2,2.2,1.2,3.8v0.5c0,1.3,0.2,2.2,0.6,2.9c0.4,0.7,1.1,1.1,2.1,1.1h0.2v0.2h-0.2c-1.3,0-2.3-0.4-2.9-1
				c-0.1-0.1-0.3-0.3-0.4-0.5c-0.2,0.4-0.5,0.8-0.8,1.1l-0.3,0.3c-0.8,0.7-1.9,1-3.2,1c-1.3,0-2.3-0.3-3.2-1l-0.3-0.2
				C65.6,142.9,65.3,142.5,65.1,142.1z M65.6,139.5L65.6,139.5l0,0.2c0.1,3,1.3,4.5,3.7,4.5c2.5,0,3.7-1.7,3.7-5.1
				c0-1.6-0.3-2.9-1-3.9c-0.7-1-1.6-1.4-2.8-1.4c-1.2,0-2.1,0.5-2.8,1.5c-0.7,1-1,2.3-1,3.9V139.5z"/>
			<path class="st9" d="M77.6,144.4c0.1,0.1,0.2,0.3,0.2,0.5c0,0.2-0.1,0.3-0.2,0.5c-0.1,0.1-0.3,0.2-0.5,0.2
				c-0.2,0-0.4-0.1-0.5-0.2c-0.1-0.1-0.2-0.3-0.2-0.5c0-0.2,0.1-0.4,0.2-0.5c0.1-0.1,0.3-0.2,0.5-0.2
				C77.3,144.2,77.5,144.3,77.6,144.4z M80.1,133.6c0.3,0,0.6,0.1,0.8,0.4c0.2,0.3,0.3,0.6,0.3,1v4.5c0,1.4-0.3,2.4-0.9,3.1
				c-0.6,0.7-1.6,1-2.9,1H77v-0.2h0.3c1,0,1.7-0.4,2.1-1.1c0.4-0.6,0.6-1.6,0.6-2.9L80.1,133.6L80.1,133.6z M79.5,144.4
				c0.1,0.1,0.2,0.3,0.2,0.5c0,0.2-0.1,0.4-0.2,0.5c-0.1,0.1-0.3,0.2-0.5,0.2c-0.2,0-0.3-0.1-0.5-0.2c-0.1-0.1-0.2-0.3-0.2-0.5
				c0-0.2,0.1-0.4,0.2-0.5s0.3-0.2,0.5-0.2C79.2,144.2,79.3,144.3,79.5,144.4z"/>
			<path class="st9" d="M91.3,143.6h-8.2v-0.2h7v-4.2c0-1.6-0.4-2.8-1-3.8c-0.7-1-1.5-1.5-2.6-1.5c-1,0-1.8,0.2-2.4,0.7
				c-0.5,0.4-0.8,1-0.8,1.8v0.2c0.1-0.1,0.2-0.2,0.4-0.2c0.1,0,0.3,0,0.4,0.1c0.1,0.1,0.2,0.2,0.2,0.4c0,0.1-0.1,0.3-0.2,0.4
				c-0.1,0.1-0.2,0.1-0.4,0.1c-0.2,0-0.4-0.1-0.5-0.4c-0.1-0.2-0.1-0.5-0.1-0.8c0-0.8,0.3-1.5,0.9-1.9s1.4-0.7,2.4-0.7
				c1.5,0,2.7,0.5,3.6,1.6c0.8,1,1.2,2.3,1.2,3.9V143.6z"/>
			<path class="st9" d="M94.4,129.6v9.8c0,1.3,0.2,2.2,0.6,2.9c0.4,0.7,1.1,1.1,2.1,1.1h0.3v0.2h-0.3c-1.3,0-2.3-0.4-2.9-1
				c-0.6-0.7-0.9-1.7-0.9-3.1V131c0-0.4,0.1-0.8,0.3-1C93.7,129.7,94,129.6,94.4,129.6L94.4,129.6z"/>
			<path class="st9" d="M105,137.4c1.2,0,2.1,0.3,2.7,0.8c0.6,0.6,1,1.4,1,2.4c0,1-0.3,1.7-0.8,2.2c-0.7,0.6-1.7,0.9-3.2,0.9h-7.3
				v-0.2h7.3c1.4,0,2.4-0.2,3-0.7c0.6-0.4,0.9-1.1,0.9-2.1c0-0.8-0.3-1.3-1-1.7c-0.6-0.3-1.5-0.4-2.8-0.4l-6.3,0v-0.6
				c0,0,0-0.1,0-0.3v-0.2c0.1-1.9,0.6-3.4,1.6-4.6c1.1-1.3,2.5-1.9,4.4-1.9c1.3,0,2.4,0.3,3.1,0.8c0.8,0.6,1.1,1.4,1.1,2.5
				c0,0.5-0.1,1-0.3,1.3l0,0.1l0,0c0,0,0,0,0,0c-0.1,0.1-0.2,0.2-0.4,0.2c-0.1,0-0.3,0-0.3-0.1c-0.1-0.1-0.1-0.2-0.1-0.4
				c0-0.1,0-0.3,0.1-0.4c0.1-0.1,0.2-0.1,0.3-0.1c0.2,0,0.3,0.1,0.4,0.2c0.1-0.1,0.1-0.4,0.1-0.8c0-1-0.3-1.7-1-2.2
				c-0.7-0.6-1.7-0.9-3-0.9c-1.3,0-2.4,0.6-3.3,1.8c-0.9,1.2-1.5,2.7-1.6,4.5H105z"/>
			<path class="st9" d="M110,143.6v-14h0.1c0.7,0,1.1,0.4,1.1,1.3v12.7H110z"/>
			<path class="st9" d="M124.7,134c0.2,0.3,0.3,0.6,0.3,1v5.5c0,1.2-0.1,2.2-0.4,3.1l-0.1,0.3c0,0.1,0,0.1,0,0.1
				c-0.4,0.8-0.9,1.5-1.5,2c-0.3,0.3-0.7,0.5-1.1,0.7c-0.2,0.1-0.4,0.2-0.7,0.2c-0.4,0.1-0.8,0.2-1.2,0.1c-0.4,0-0.6-0.1-0.8-0.2
				c-0.2-0.1-0.3-0.3-0.3-0.5c0-0.1,0.1-0.3,0.2-0.4c0.1-0.1,0.2-0.1,0.4-0.1c0.1,0,0.3,0.1,0.4,0.2c0.1,0.1,0.1,0.2,0.1,0.4
				c0,0.1-0.1,0.3-0.2,0.4c0.4,0.1,0.9,0.1,1.4-0.1c0.8-0.3,1.3-0.6,1.8-1.1c0.8-0.9,1.2-2.6,1.2-5.1v-6.9h0
				C124.2,133.6,124.5,133.7,124.7,134z M124.7,131.7c0.1,0.1,0.2,0.3,0.2,0.5c0,0.2-0.1,0.4-0.2,0.5c-0.1,0.1-0.3,0.2-0.5,0.2
				c-0.2,0-0.3-0.1-0.5-0.2c-0.1-0.1-0.2-0.3-0.2-0.5c0-0.2,0.1-0.3,0.2-0.5c0.1-0.1,0.3-0.2,0.5-0.2
				C124.4,131.5,124.5,131.6,124.7,131.7z"/>
			<path class="st9" d="M128.1,129.6v9.8c0,1.3,0.2,2.2,0.6,2.9c0.4,0.7,1.1,1.1,2.1,1.1h0.3v0.2h-0.3c-1.3,0-2.3-0.4-2.9-1
				c-0.6-0.7-0.9-1.7-0.9-3.1V131c0-0.4,0.1-0.8,0.3-1C127.5,129.7,127.7,129.6,128.1,129.6L128.1,129.6z"/>
			<path class="st9" d="M134,139.5c0-0.1,0-0.3,0-0.4c0-1.6,0.4-2.9,1.2-3.9c0.9-1.1,2.1-1.6,3.6-1.6c1.6,0,2.8,0.5,3.7,1.6
				c0.8,1,1.2,2.3,1.2,3.9c0,1.8-0.5,3.1-1.4,4.1l-0.3,0.3c-0.8,0.7-1.9,1-3.2,1c-1.3,0-2.3-0.3-3.2-1l-0.3-0.2
				c-0.3-0.3-0.6-0.7-0.8-1.1c-0.1,0.2-0.2,0.3-0.4,0.5c-0.6,0.7-1.6,1-2.9,1H131v-0.2h0.3c1,0,1.7-0.4,2.1-1.1
				C133.8,141.7,134,140.8,134,139.5z M135.2,139.5L135.2,139.5l0,0.2c0.1,3,1.3,4.5,3.7,4.5c2.5,0,3.7-1.7,3.7-5.1
				c0-1.6-0.3-2.9-1-3.9c-0.7-1-1.6-1.4-2.8-1.4c-1.2,0-2.1,0.5-2.8,1.5c-0.7,1-1,2.3-1,3.9V139.5z"/>
			<path class="st9" d="M147.3,137.9v-4.3h0c0.3,0,0.6,0.1,0.8,0.4c0.2,0.3,0.3,0.6,0.3,1v4.4c0,1.3,0.2,2.2,0.6,2.9
				c0.4,0.7,1.1,1.1,2.1,1.1h0.2v0.2h-0.2c-1.3,0-2.3-0.3-2.9-1c-0.1,0.3-0.2,0.7-0.3,1l-0.1,0.3c0,0.1,0,0.1,0,0.1
				c-0.4,0.8-0.9,1.5-1.5,2c-0.3,0.3-0.7,0.5-1.1,0.7c-0.2,0.1-0.4,0.2-0.7,0.2c-0.4,0.1-0.8,0.2-1.2,0.1c-0.4,0-0.6-0.1-0.8-0.2
				c-0.2-0.1-0.3-0.3-0.3-0.5c0-0.1,0.1-0.3,0.2-0.4c0.1-0.1,0.2-0.1,0.4-0.1c0.1,0,0.3,0.1,0.4,0.2c0.1,0.1,0.1,0.2,0.1,0.4
				c0,0.1-0.1,0.3-0.2,0.4c0.4,0.1,0.9,0.1,1.4-0.1c0.8-0.3,1.3-0.6,1.8-1.1c0.8-0.9,1.2-2.6,1.2-5.1v-0.6c0-0.1,0-0.3,0-0.4
				L147.3,137.9L147.3,137.9z"/>
			<path class="st9" d="M154.3,139.5c0-0.1,0-0.3,0-0.4c0-1.6,0.4-2.9,1.2-3.9c0.9-1.1,2.1-1.6,3.6-1.6c1.6,0,2.8,0.5,3.7,1.6
				c0.8,1,1.2,2.3,1.2,3.9c0,1.8-0.5,3.1-1.4,4.1l-0.3,0.3c-0.8,0.7-1.9,1-3.2,1c-1.3,0-2.3-0.3-3.2-1l-0.3-0.2
				c-0.3-0.3-0.6-0.7-0.8-1.1c-0.1,0.2-0.2,0.3-0.4,0.5c-0.6,0.7-1.6,1-2.9,1h-0.3v-0.2h0.3c1,0,1.7-0.4,2.1-1.1
				C154.1,141.7,154.2,140.8,154.3,139.5z M155.4,139.5L155.4,139.5l0,0.2c0.1,3,1.3,4.5,3.7,4.5c2.5,0,3.7-1.7,3.7-5.1
				c0-1.6-0.3-2.9-1-3.9c-0.7-1-1.6-1.4-2.8-1.4c-1.2,0-2.1,0.5-2.8,1.5c-0.7,1-1,2.3-1,3.9V139.5z"/>
		</g>
	</g>
</g>
</svg>
