<svg xmlns="http://www.w3.org/2000/svg" width="44" height="44" viewBox="0 0 44 44">
  <g id="Group_4953" data-name="Group 4953" transform="translate(-242 -756)">
    <circle id="Ellipse_579" data-name="Ellipse 579" cx="22" cy="22" r="22" transform="translate(242 756)" fill="#d1d5db"/>
    <path id="facebook-svgrepo-com_1_" data-name="facebook-svgrepo-com (1)" d="M10.622,3.836a5.416,5.416,0,0,1,3.83-1.586h2.785a.774.774,0,0,1,.774.774V6.737a.774.774,0,0,1-.774.774H14.451a.155.155,0,0,0-.155.155V9.678h2.94a.774.774,0,0,1,.751.961l-.928,3.714a.774.774,0,0,1-.751.586H14.3v6.654a.774.774,0,0,1-.774.774H9.809a.774.774,0,0,1-.774-.774V14.939H7.024a.774.774,0,0,1-.774-.774V10.451a.774.774,0,0,1,.774-.774H9.035V7.666A5.416,5.416,0,0,1,10.622,3.836Zm3.83-.039a3.868,3.868,0,0,0-3.869,3.869v2.785a.774.774,0,0,1-.774.774H7.8v2.166H9.809a.774.774,0,0,1,.774.774v6.654h2.166V14.165a.774.774,0,0,1,.774-.774H15.7l.542-2.166H13.523a.774.774,0,0,1-.774-.774V7.666a1.7,1.7,0,0,1,1.7-1.7h2.012V3.8Z" transform="translate(251.75 765.75)" fill-rule="evenodd"/>
  </g>
</svg>
