<svg xmlns="http://www.w3.org/2000/svg" width="44" height="44" viewBox="0 0 44 44">
  <g id="Group_4949" data-name="Group 4949" transform="translate(-35 -756)">
    <circle id="Ellipse_576" data-name="Ellipse 576" cx="22" cy="22" r="22" transform="translate(35 756)" fill="#d1d5db"/>
    <g id="instagram-svgrepo-com" transform="translate(45.378 766)">
      <path id="Path_8289" data-name="Path 8289" d="M12,16a4,4,0,1,0-4-4A4,4,0,0,0,12,16Z" fill="none" stroke="#000" stroke-linecap="round" stroke-linejoin="round" stroke-width="1.5"/>
      <path id="Path_8290" data-name="Path 8290" d="M3,16V8A5,5,0,0,1,8,3h8a5,5,0,0,1,5,5v8a5,5,0,0,1-5,5H8A5,5,0,0,1,3,16Z" fill="none" stroke="#000" stroke-width="1.5"/>
      <path id="Path_8291" data-name="Path 8291" d="M17.5,6.51l.01-.011" fill="none" stroke="#000" stroke-linecap="round" stroke-linejoin="round" stroke-width="1.5"/>
    </g>
  </g>
</svg>
