<svg xmlns="http://www.w3.org/2000/svg" width="44" height="44" viewBox="0 0 44 44">
  <g id="Group_4952" data-name="Group 4952" transform="translate(-311 -756)">
    <circle id="Ellipse_580" data-name="Ellipse 580" cx="22" cy="22" r="22" transform="translate(311 756)" fill="#d1d5db"/>
    <g id="Iconly_Light-Outline_Send" data-name="Iconly/Light-Outline/Send" transform="translate(321.25 765.25)">
      <g id="Send" transform="translate(2 3)">
        <path id="Fill-1" d="M8.8,11.818l3.657,5.933a.5.5,0,0,0,.511.243.508.508,0,0,0,.432-.371L17.978,2.178a.522.522,0,0,0-.133-.525.512.512,0,0,0-.512-.132L1.877,6.047A.529.529,0,0,0,1.747,7l6,3.753L13.05,5.4a.75.75,0,0,1,1.067,1.055Zm4.09,7.682a2,2,0,0,1-1.71-.962L7.308,12.247.952,8.272a2.028,2.028,0,0,1,.5-3.664L16.911.082a2.022,2.022,0,0,1,2.5,2.522L14.842,18.048a2,2,0,0,1-1.67,1.433,2.173,2.173,0,0,1-.277.019Z" fill-rule="evenodd"/>
      </g>
    </g>
  </g>
</svg>
