<svg xmlns="http://www.w3.org/2000/svg" width="44" height="44" viewBox="0 0 44 44">
  <g id="Group_4950" data-name="Group 4950" transform="translate(-35 -756)">
    <circle id="Ellipse_576" data-name="Ellipse 576" cx="22" cy="22" r="22" transform="translate(35 756)" fill="#d1d5db"/>
    <path id="web-svgrepo-com_1_" data-name="web-svgrepo-com (1)" d="M3.512,15h4.66a26.264,26.264,0,0,1,0-6H3.512a9.043,9.043,0,0,0,0,6Zm.423,1a9.017,9.017,0,0,0,6.092,4.783A11.556,11.556,0,0,1,8.314,16Zm16.552-1a9.043,9.043,0,0,0,0-6h-4.66A25.567,25.567,0,0,1,16,12a25.567,25.567,0,0,1-.172,3Zm-.423,1H15.686a11.556,11.556,0,0,1-1.714,4.783A9.017,9.017,0,0,0,20.064,16ZM9.184,15h5.631A24.046,24.046,0,0,0,15,12a24.046,24.046,0,0,0-.184-3H9.184a24.5,24.5,0,0,0,0,6Zm.151,1c.522,2.968,1.583,5,2.665,5s2.143-2.032,2.665-5Zm-5.4-8H8.314a11.556,11.556,0,0,1,1.714-4.783A9.017,9.017,0,0,0,3.936,8ZM20.064,8a9.017,9.017,0,0,0-6.092-4.783A11.556,11.556,0,0,1,15.686,8ZM9.335,8h5.33C14.143,5.032,13.082,3,12,3S9.857,5.032,9.335,8ZM12,22A10,10,0,1,1,22,12,10,10,0,0,1,12,22Z" transform="translate(45.378 766)"/>
  </g>
</svg>
