<svg xmlns="http://www.w3.org/2000/svg" width="20.021" height="20.116" viewBox="0 0 20.021 20.116">
  <path id="whatsapp-svgrepo-com" d="M20.1,5.924A9.971,9.971,0,0,0,4.414,17.951L3,23.116l5.284-1.387a9.972,9.972,0,0,0,4.764,1.214h0A9.972,9.972,0,0,0,20.1,5.924M13.052,21.26h0A8.269,8.269,0,0,1,8.831,20.1l-.3-.179-3.136.823.836-3.057-.2-.313a8.285,8.285,0,1,1,7.019,3.883M17.6,15.054c-.25-.125-1.473-.727-1.7-.811s-.393-.124-.56.124-.644.809-.789.976-.291.187-.54.062a6.8,6.8,0,0,1-2-1.236,7.5,7.5,0,0,1-1.386-1.726c-.145-.25-.016-.384.11-.509s.249-.291.373-.436a1.7,1.7,0,0,0,.249-.415.455.455,0,0,0-.021-.436c-.062-.125-.561-1.351-.768-1.85-.2-.483-.406-.419-.56-.425s-.318-.009-.476-.009a.917.917,0,0,0-.665.311,2.792,2.792,0,0,0-.872,2.078A4.851,4.851,0,0,0,9,13.33a11.1,11.1,0,0,0,4.255,3.761,14.73,14.73,0,0,0,1.42.525,3.422,3.422,0,0,0,1.569.1,2.562,2.562,0,0,0,1.681-1.184,2.084,2.084,0,0,0,.145-1.185c-.062-.1-.23-.168-.477-.292" transform="translate(-3 -3)" fill-rule="evenodd"/>
</svg>
